# xmcd
#
# Track frame offsets:
#	150
#	15222
#	29397
#	58175
#	82037
#	103087
#	120470
#	138020
#	150460
#	176340
#	200242
#	221865
#	241725
#	267562
#
# Disc length: 3871
#
# Revision: 2
# Processed by: cddbd v1.5.1PL0 Copyright (c) Steve Scherf et al.
# Submitted via: dBpowerAMP V4.0
# Normalized: r0:TSWAP
#
DISCID=bd0f1d0e
DTITLE=Various Artist - The soft side of guitar
DYEAR=1991
DGENRE=Blues
TTITLE0=Snowy White - The journey part 1
TTITLE1=Lowell Fulson - Reconcider baby
TTITLE2=Forcefield II ft. Jan Akkerman - I lose again
TTITLE3=Mario Parga - Raining again
TTITLE4=Kenny Burrell - I am a fool to want you
TTITLE5=Denny Laine - Wildest dream
TTITLE6=Jimi Hendrix - Hot trigger
TTITLE7=Crazy Horse fr. Matt Piucci - You and I
TTITLE8=Luther Allison - Live is free
TTITLE9=John Mayall's Bluesbreakers - Gimme one more day
TTITLE10=Joe Luis Walker - Don't play games
TTITLE11=Howlin' Wolve ft Eric Clapton - Wang-Dang-Doodle
TTITLE12=Snowy White - The waters edge/ Steppin stones
TTITLE13=George Benson - There will never be another you
EXTD=
EXTT0=
EXTT1=
EXTT2=
EXTT3=
EXTT4=
EXTT5=
EXTT6=
EXTT7=
EXTT8=
EXTT9=
EXTT10=
EXTT11=
EXTT12=
EXTT13=
PLAYORDER=
